Coordinates
nRows=12
nColumns=24

# SIMM Motion File Header:
name Coordinates
datacolumns 24
datarows 12
otherdata 1
range 0.35999999999999999000 0.37100000000000000000

Units are S.I. units (second, meters, Newtons, ...)
Angles are in degrees.

endheader
time	pelvis_tx	pelvis_ty	pelvis_tz	pelvis_tilt	pelvis_list	pelvis_rotation	hip_flexion_r	hip_adduction_r	hip_rotation_r	knee_angle_r	ankle_angle_r	subtalar_angle_r	mtp_angle_r	hip_flexion_l	hip_adduction_l	hip_rotation_l	knee_angle_l	ankle_angle_l	subtalar_angle_l	mtp_angle_l	lumbar_extension	lumbar_bending	lumbar_rotation
      0.35999999999999999000	      0.79934735428298731000	      0.74723501561204664000	     -0.19548022820787236000	     -2.06913819541123930000	     -0.97014789929995238000	      1.61792375595830730000	     13.50540689951707500000	      5.71476846759617010000	     -1.58934142512350540000	    -10.91135490439888200000	     -0.76645823693370618000	      0.00000000000000000000	      0.00000000000000000000	    -11.35568497510512600000	     -3.38430461226931150000	    -14.56866197114556100000	    -28.28611869011660900000	    -20.85854965715308800000	      0.00000000000000000000	      0.00000000000000000000	     -6.72078850256900480000	     -0.41456486723176927000	      2.46339480108483140000
      0.36099999999999999000	      0.79991790486152270000	      0.74729303693243776000	     -0.19539767328707924000	     -2.05393738408094650000	     -0.95143914455120182000	      1.60381291361937240000	     13.43560092804730000000	      5.70763723614470030000	     -1.57624273100499330000	    -10.90447061791822500000	     -0.72602500463057251000	      0.00000000000000000709	     -0.00000000000000003157	    -11.25850297338645600000	     -3.41528662840047300000	    -14.58598557913789400000	    -28.51572587346786800000	    -20.82753164331018800000	     -0.00000000000000000069	     -0.00000000000000000060	     -6.73517884846270220000	     -0.43590951685222684000	      2.48772781200607530000
      0.36199999999999999000	      0.80048753991195376000	      0.74735027659118525000	     -0.19531554344209573000	     -2.03869426677256140000	     -0.93280964120282928000	      1.58980727745985440000	     13.36580395783656000000	      5.70053036713859470000	     -1.56313113770010110000	    -10.89751697739438700000	     -0.68580178205141062000	      0.00000000000000001912	     -0.00000000000000008267	    -11.16113578508214000000	     -3.44617638402707180000	    -14.60278299480367700000	    -28.74504819397232700000	    -20.79521804549899100000	     -0.00000000000000000372	     -0.00000000000000000193	     -6.74962292795348340000	     -0.45717245603502765000	      2.51191325406042760000
      0.36299999999999999000	      0.80105624481298909000	      0.74740676018242891000	     -0.19523384854157336000	     -2.02340034377813360000	     -0.91426504093048999000	      1.57591231310625910000	     13.29600671335492400000	      5.69345374100976450000	     -1.54998955854104480000	    -10.89049956408841200000	     -0.64563176631540842000	      0.00000000000000000085	     -0.00000000000000014424	    -11.06358378958589500000	     -3.47696708464321120000	    -14.61902082034776600000	    -28.97405741882162600000	    -20.76152275512196300000	     -0.00000000000000000756	     -0.00000000000000000250	     -6.76413232006189350000	     -0.47834725242677545000	      2.53594327221249080000
      0.36399999999999999000	      0.80162399537137008000	      0.74746251108896211000	     -0.19515260331165368000	     -2.00805214861915850000	     -0.89581169669129757000	      1.56213658632966680000	     13.22620614188845100000	      5.68641052621419000000	     -1.53681593301457760000	    -10.88341447574856600000	     -0.60551776335982077000	     -0.00000000000000003446	     -0.00000000000000023719	    -10.96583591469238800000	     -3.50765145604711480000	    -14.63465681165753900000	    -29.20272856202095800000	    -20.72634044849349900000	     -0.00000000000000001030	     -0.00000000000000000333	     -6.77871407236054150000	     -0.49942654747697457000	      2.55980630705406840000
      0.36499999999999999000	      0.80219076754571184000	      0.74751755239565354000	     -0.19507182221609293000	     -1.99264638314292330000	     -0.87745584845464786000	      1.54848852433060550000	     13.15639939022966900000	      5.67940378422682550000	     -1.52360847968288950000	    -10.87625778235988600000	     -0.56546402650458893000	     -0.00000000000000005946	     -0.00000000000000033669	    -10.86788105151130400000	     -3.53822226099571990000	    -14.64964970709296600000	    -29.43103666411540300000	    -20.68956785981721300000	     -0.00000000000000001433	     -0.00000000000000000448	     -6.79337500297562350000	     -0.52040310574103732000	      2.58349102526134720000
      0.36599999999999999000	      0.80275653757585963000	      0.74757190687409092000	     -0.19499151937191667000	     -1.97717987042049100000	     -0.85920360212423053000	      1.53497636369741630000	     13.08658374289870500000	      5.67243648058791550000	     -1.51036555237529410000	    -10.86902562089011500000	     -0.52547475692367585000	     -0.00000000000000015792	     -0.00000000000000039286	    -10.76970818975629400000	     -3.56867231483932690000	    -14.66395939299679800000	    -29.65895676144770800000	    -20.65110414328989600000	     -0.00000000000000001945	     -0.00000000000000000449	     -6.80812173688322810000	     -0.54126984347920715000	      2.60698639503417830000
      0.36699999999999999000	      0.80332128200596120000	      0.74762559694878072000	     -0.19491170853370016000	     -1.96164956235149710000	     -0.84106092040223379000	      1.52160813725364760000	     13.01675662810019100000	      5.66551147990032790000	     -1.49708564758441610000	    -10.86171420142167500000	     -0.48555409276552630000	     -0.00000000000000025010	     -0.00000000000000049795	    -10.67130642815531200000	     -3.59899449083160230000	    -14.67754697989317100000	    -29.88646388667963500000	    -20.61085103540101600000	     -0.00000000000000002428	     -0.00000000000000000526	     -6.82296069525306680000	     -0.56201983913682796000	      2.63028171836030200000
      0.36799999999999999000	      0.80388497770591305000	      0.74767864466666800000	     -0.19483240307987854000	     -1.94605254674690900000	     -0.82303361129946462000	      1.50839166136854170000	     12.94691562314985900000	      5.65863153695076000000	     -1.48376742176149760000	    -10.85431981263031000000	     -0.44570619610815493000	     -0.00000000000000030835	     -0.00000000000000057722	    -10.57266498283698700000	     -3.62918172215863290000	    -14.69037487476427200000	    -30.11353307691336700000	    -20.56871299432933100000	     -0.00000000000000002841	     -0.00000000000000000518	     -6.83789808558466210000	     -0.58264634624611722000	      2.65336666042702870000
      0.36899999999999999000	      0.80444760189052378000	      0.74773107166736363000	     -0.19475361600249119000	     -1.93038605620210600000	     -0.80512732375838381000	      1.49533452665756310000	     12.87705846305490500000	      5.65179929558151440000	     -1.47040970154454760000	    -10.84683882654281500000	     -0.40593525419656795000	     -0.00000000000000037901	     -0.00000000000000063645	    -10.47377319543763200000	     -3.65922701017321250000	    -14.70240684545860600000	    -30.34013936168730700000	    -20.52459737234460800000	     -0.00000000000000002854	     -0.00000000000000000863	     -6.85293988934500040000	     -0.60314279760358935000	      2.67623126823502620000
      0.37000000000000000000	      0.80500913214412695000	      0.74778289918869667000	     -0.19467535989491550000	     -1.91464747373314560000	     -0.78734754181367717000	      1.48244408826198290000	     12.80718304658334000000	      5.64501728747840130000	     -1.45701147794086690000	    -10.83926770217178700000	     -0.36624538179336064000	     -0.00000000000000043810	     -0.00000000000000068949	    -10.37462054021261300000	     -3.68912342985958210000	    -14.71360807762872000000	    -30.56625776557085000000	    -20.47841453865476400000	     -0.00000000000000002952	     -0.00000000000000001337	     -6.86809185316465330000	     -0.62350281092245430000	      2.69886598161089800000
      0.37100000000000000000	      0.80556954644916778000	      0.74783414809124105000	     -0.19459764693913745000	     -1.89883433638781370000	     -0.76969957436007985000	      1.46972745551681210000	     12.73728743997212100000	      5.63828792532111220000	     -1.44357190759198640000	    -10.83160298930464900000	     -0.32664060550464885000	     -0.00000000000000049076	     -0.00000000000000076619	    -10.27519663009786100000	     -3.71886413029971900000	    -14.72394522863387000000	    -30.79186332575943300000	    -20.43007796436931400000	     -0.00000000000000003465	     -0.00000000000000001916	     -6.88335948243936270000	     -0.64372019939270664000	      2.72126164248229820000
